<?xml version="1.0" encoding="UTF-8"?>
<!DOCTYPE svg PUBLIC "-//W3C//DTD SVG 1.0//EN" "http://www.w3.org/TR/2001/REC-SVG-20010904/DTD/svg10.dtd">
<!-- Creator: CorelDRAW X6 -->
<svg xmlns="http://www.w3.org/2000/svg" xml:space="preserve" width="2.68904in" height="1.65423in" version="1.0" style="shape-rendering:geometricPrecision; text-rendering:geometricPrecision; image-rendering:optimizeQuality; fill-rule:evenodd; clip-rule:evenodd"
viewBox="0 0 2679 1648"
 xmlns:xlink="http://www.w3.org/1999/xlink">
 <defs>
  <style type="text/css">
   <![CDATA[
    .str0 {stroke:#BDBFC1;stroke-width:6.91898}
    .fil5 {fill:none}
    .fil6 {fill:#606062;fill-rule:nonzero}
    .fil1 {fill:#727376;fill-rule:nonzero}
    .fil0 {fill:#0F93B0;fill-rule:nonzero}
    .fil3 {fill:url(#id0)}
    .fil2 {fill:url(#id1)}
    .fil4 {fill:url(#id2)}
   ]]>
  </style>
  <linearGradient id="id0" gradientUnits="userSpaceOnUse" x1="1799.01" y1="107.056" x2="974.937" y2="730.701">
   <stop offset="0" style="stop-color:#45B653"/>
   <stop offset="1" style="stop-color:#A8CF45"/>
  </linearGradient>
  <linearGradient id="id1" gradientUnits="userSpaceOnUse" x1="702.786" y1="823.539" x2="1441.61" y2="259.434">
   <stop offset="0" style="stop-color:#F5863C"/>
   <stop offset="1" style="stop-color:#E77837"/>
  </linearGradient>
  <linearGradient id="id2" gradientUnits="userSpaceOnUse" x1="1340.16" y1="556.774" x2="2063.26" y2="35.7637">
   <stop offset="0" style="stop-color:#0D94B2"/>
   <stop offset="0.568627" style="stop-color:#0D8BA8"/>
   <stop offset="1" style="stop-color:#0C829E"/>
  </linearGradient>
 </defs>
 <g id="Layer_x0020_1">
  <metadata id="CorelCorpID_0Corel-Layer"/>
  <g id="_372550408">
   <path class="fil0" d="M0 931l63 0c34,0 58,3 73,9 15,6 27,16 36,30 9,14 13,31 13,50 0,22 -6,40 -17,54 -11,14 -27,24 -46,30 -11,3 -32,5 -63,5l0 131 -59 0 0 -311zm59 122l19 0c15,0 25,-1 31,-3 6,-2 10,-6 14,-11 3,-5 5,-11 5,-18 0,-12 -5,-21 -14,-26 -7,-4 -19,-6 -38,-6l-17 0 0 64z"/>
   <path id="1" class="fil0" d="M247 931l63 0c34,0 59,3 73,9 15,6 26,16 35,31 9,14 13,31 13,50 0,20 -5,37 -15,51 -10,14 -25,24 -44,31l73 138 -65 0 -70 -131 -6 0 0 131 -59 0 0 -311zm59 122l19 0c19,0 32,-2 39,-7 7,-5 11,-13 11,-25 0,-7 -2,-13 -5,-18 -4,-5 -8,-9 -14,-11 -6,-2 -17,-3 -33,-3l-16 0 0 64z"/>
   <path id="2" class="fil0" d="M588 931l60 0 120 311 -61 0 -24 -64 -127 0 -25 64 -61 0 120 -311zm30 83l-42 107 84 0 -42 -107z"/>
   <path id="3" class="fil0" d="M977 973l-44 39c-15,-21 -31,-32 -47,-32 -8,0 -14,2 -19,6 -5,4 -7,9 -7,14 0,5 2,10 5,15 5,6 19,19 43,40 23,19 36,31 41,36 12,12 20,24 26,35 5,11 7,23 7,36 0,26 -9,46 -26,63 -18,17 -41,25 -69,25 -22,0 -41,-5 -58,-16 -16,-11 -31,-28 -42,-51l50 -30c15,27 32,41 52,41 10,0 19,-3 26,-9 7,-6 10,-13 10,-20 0,-7 -3,-14 -8,-21 -5,-7 -17,-18 -35,-32 -34,-28 -56,-49 -66,-64 -10,-15 -15,-30 -15,-45 0,-22 8,-40 25,-55 16,-15 37,-23 61,-23 15,0 30,4 44,11 14,7 29,20 46,39z"/>
   <path id="4" class="fil0" d="M1036 931l59 0 0 201c0,17 2,30 5,37 3,7 8,13 15,17 7,4 15,6 25,6 10,0 19,-2 27,-7 8,-5 13,-11 16,-18 3,-7 4,-21 4,-42l0 -193 59 0 0 185c0,31 -2,53 -5,65 -4,12 -10,24 -20,35 -10,11 -21,20 -34,25 -13,5 -28,8 -45,8 -22,0 -42,-5 -59,-16 -17,-10 -29,-23 -36,-39 -7,-16 -11,-42 -11,-79l0 -185z"/>
   <polygon id="5" class="fil0" points="1316,931 1372,931 1506,1135 1506,931 1564,931 1564,1242 1508,1242 1375,1038 1375,1242 1316,1242 "/>
   <path id="6" class="fil0" d="M1757 931l70 0c45,0 79,6 101,17 22,11 40,29 54,55 14,25 21,55 21,88 0,24 -4,46 -12,66 -8,20 -19,37 -33,50 -14,13 -29,22 -45,27 -16,5 -45,8 -85,8l-71 0 0 -311zm59 57l0 196 27 0c27,0 47,-3 59,-9 12,-6 22,-17 30,-31 8,-15 12,-33 12,-54 0,-33 -9,-59 -28,-77 -17,-16 -43,-25 -80,-25l-20 0z"/>
   <polygon id="7" class="fil0" points="2055,931 2114,931 2114,1242 2055,1242 "/>
   <path id="8" class="fil0" d="M2343 973l-44 39c-15,-21 -31,-32 -47,-32 -8,0 -14,2 -19,6 -5,4 -7,9 -7,14 0,5 2,10 5,15 5,6 19,19 43,40 23,19 36,31 41,36 12,12 20,24 26,35 5,11 7,23 7,36 0,26 -9,46 -26,63 -18,17 -41,25 -69,25 -22,0 -41,-5 -58,-16 -16,-11 -31,-28 -42,-51l50 -30c15,27 32,41 52,41 10,0 19,-3 26,-9 7,-6 10,-13 10,-20 0,-7 -3,-14 -8,-21 -5,-7 -17,-18 -35,-32 -34,-28 -56,-49 -66,-64 -10,-15 -15,-30 -15,-45 0,-22 8,-40 25,-55 16,-15 37,-23 61,-23 15,0 30,4 44,11 14,7 29,20 46,39z"/>
   <path id="9" class="fil0" d="M2500 931l60 0 120 311 -61 0 -24 -64 -127 0 -25 64 -61 0 120 -311zm30 83l-42 107 84 0 -42 -107z"/>
   <path class="fil1" d="M281 1342l0 32 22 0c7,0 12,-1 14,-4 3,-2 4,-6 4,-12 0,-5 -1,-10 -4,-12 -3,-3 -7,-4 -14,-4l-23 0zm-17 -15l38 0c6,0 11,0 14,1 3,1 6,2 8,3 5,2 8,6 10,11 2,5 4,10 4,17 0,5 -1,10 -3,14 -2,4 -5,8 -9,10 -3,2 -6,3 -9,4 -3,1 -8,1 -14,1l-23 0 0 39 -17 0 0 -100z"/>
   <path id="1" class="fil1" d="M413 1342l0 31 24 0c7,0 12,-1 15,-4 3,-2 5,-6 5,-12 0,-5 -1,-9 -4,-12 -3,-2 -8,-4 -15,-4l-24 0zm-16 -14l43 0c1,0 3,0 4,0 0,0 1,0 1,0 9,0 16,2 21,7 5,5 8,12 8,20 0,6 -1,11 -4,15 -2,4 -6,7 -11,9 4,1 7,3 9,6 2,3 3,7 3,14l1 14c0,0 0,0 0,0 0,6 2,10 4,11l0 3 -19 0c-1,-1 -1,-3 -2,-5 0,-2 -1,-5 -1,-9l-1 -12c0,-6 -2,-11 -4,-13 -2,-2 -6,-3 -12,-3l-3 0 -22 0 0 41 -17 0 0 -100z"/>
   <path id="2" class="fil1" d="M578 1340c-10,0 -17,3 -23,10 -6,7 -8,16 -8,28 0,12 3,21 8,28 5,7 13,10 23,10 10,0 17,-3 23,-10 6,-7 8,-16 8,-28 0,-12 -3,-22 -8,-28 -5,-7 -13,-10 -23,-10zm0 -15c15,0 27,5 35,14 9,9 13,22 13,39 0,16 -4,29 -13,39 -9,9 -20,14 -35,14 -15,0 -27,-5 -35,-14 -9,-9 -13,-22 -13,-39 0,-16 4,-29 13,-39 9,-9 20,-14 35,-14z"/>
   <path id="3" class="fil1" d="M702 1342l0 32 22 0c7,0 12,-1 14,-4 3,-2 4,-6 4,-12 0,-5 -1,-10 -4,-12 -3,-3 -7,-4 -14,-4l-23 0zm-17 -15l38 0c6,0 11,0 14,1 3,1 6,2 8,3 5,2 8,6 10,11 2,5 4,10 4,17 0,5 -1,10 -3,14 -2,4 -5,8 -9,10 -3,2 -6,3 -9,4 -3,1 -8,1 -14,1l-23 0 0 39 -17 0 0 -100z"/>
   <polygon id="4" class="fil1" points="818,1328 889,1328 889,1343 834,1343 834,1369 885,1369 885,1383 834,1383 834,1413 891,1413 891,1428 818,1428 "/>
   <path id="5" class="fil1" d="M966 1342l0 31 24 0c7,0 12,-1 15,-4 3,-2 5,-6 5,-12 0,-5 -1,-9 -4,-12 -3,-2 -8,-4 -15,-4l-24 0zm-16 -14l43 0c1,0 3,0 4,0 0,0 1,0 1,0 9,0 16,2 21,7 5,5 8,12 8,20 0,6 -1,11 -4,15 -2,4 -6,7 -11,9 4,1 7,3 9,6 2,3 3,7 3,14l1 14c0,0 0,0 0,0 0,6 2,10 4,11l0 3 -19 0c-1,-1 -1,-3 -2,-5 0,-2 -1,-5 -1,-9l-1 -12c0,-6 -2,-11 -4,-13 -2,-2 -6,-3 -12,-3l-3 0 -22 0 0 41 -17 0 0 -100z"/>
   <polygon id="6" class="fil1" points="1078,1328 1156,1328 1156,1343 1126,1343 1126,1428 1109,1428 1109,1343 1078,1343 "/>
   <polygon id="7" class="fil1" points="1211,1328 1228,1328 1228,1428 1211,1428 "/>
   <polygon id="8" class="fil1" points="1291,1328 1363,1328 1363,1343 1308,1343 1308,1369 1359,1369 1359,1383 1308,1383 1308,1413 1365,1413 1365,1428 1291,1428 "/>
   <path id="9" class="fil1" d="M1495 1357l-16 0c0,-6 -3,-10 -6,-13 -4,-3 -9,-5 -16,-5 -5,0 -10,1 -13,4 -3,3 -5,6 -5,9 0,4 2,7 5,9 3,2 9,5 19,7 15,4 24,8 29,12 5,4 7,10 7,18 0,9 -4,17 -11,23 -7,6 -16,9 -28,9 -12,0 -22,-3 -29,-9 -7,-6 -11,-15 -11,-26l16 0c0,7 3,12 7,15 4,4 10,5 18,5 6,0 10,-1 14,-4 4,-3 5,-6 5,-10 0,-2 -1,-3 -2,-5 -1,-2 -2,-4 -4,-5 -3,-2 -8,-5 -18,-7 -2,0 -3,-1 -4,-1 -11,-3 -19,-7 -24,-11 -5,-5 -7,-11 -7,-19 0,-8 3,-15 10,-20 7,-5 16,-8 27,-8 11,0 20,3 26,9 7,6 10,14 10,23z"/>
   <path id="10" class="fil1" d="M1609 1342l0 32 22 0c7,0 12,-1 14,-4 3,-2 4,-6 4,-12 0,-5 -1,-10 -4,-12 -3,-3 -7,-4 -14,-4l-23 0zm-17 -15l38 0c6,0 11,0 14,1 3,1 6,2 8,3 5,2 8,6 10,11 2,5 4,10 4,17 0,5 -1,10 -3,14 -2,4 -5,8 -9,10 -3,2 -6,3 -9,4 -3,1 -8,1 -14,1l-23 0 0 39 -17 0 0 -100z"/>
   <polygon id="11" class="fil1" points="1714,1328 1732,1328 1757,1408 1782,1328 1800,1328 1766,1428 1749,1428 "/>
   <polygon id="12" class="fil1" points="1843,1328 1922,1328 1922,1343 1891,1343 1891,1428 1874,1428 1874,1343 1843,1343 "/>
   <polygon id="13" class="fil1" points="1957,1411 1974,1411 1974,1428 1957,1428 "/>
   <polygon id="14" class="fil1" points="2034,1328 2051,1328 2051,1413 2100,1413 2100,1428 2034,1428 "/>
   <polygon id="15" class="fil1" points="2133,1328 2211,1328 2211,1343 2180,1343 2180,1428 2164,1428 2164,1343 2133,1343 "/>
   <path id="16" class="fil1" d="M2282 1342l0 71 21 0c10,0 17,-3 22,-9 5,-6 7,-15 7,-28 0,-11 -2,-20 -7,-26 -5,-6 -12,-9 -21,-9l-22 0zm-16 -14l39 0c15,0 26,4 33,12 7,8 11,21 11,37 0,16 -4,29 -12,37 -8,9 -20,13 -35,13l-36 0 0 -100z"/>
   <polygon id="17" class="fil1" points="2408,1411 2425,1411 2425,1428 2408,1428 "/>
   <polygon class="fil2" points="758,838 646,837 1387,245 1498,246 "/>
   <polygon class="fil3" points="1073,715 961,715 1701,123 1813,123 "/>
   <polygon class="fil4" points="1387,593 1276,592 2016,0 2128,1 "/>
   <line class="fil5 str0" x1="265" y1="1491" x2="2424" y2= "1491" />
   <path class="fil6" d="M600 1647l0 -85 32 0c7,0 12,1 16,3 4,2 7,4 9,8 2,4 3,7 3,11 0,4 -1,7 -3,10 -2,3 -5,6 -9,8 5,2 9,4 12,8 3,4 4,8 4,13 0,4 -1,8 -3,11 -2,3 -4,6 -6,8 -2,2 -6,3 -9,4 -4,1 -8,1 -14,1l-33 0zm11 -49l18 0c5,0 9,0 11,-1 3,-1 5,-2 6,-4 1,-2 2,-4 2,-7 0,-3 -1,-5 -2,-7 -1,-2 -3,-4 -6,-4 -3,-1 -7,-1 -13,-1l-17 0 0 26zm0 39l21 0c4,0 6,0 8,0 3,0 5,-1 7,-2 2,-1 3,-3 4,-5 1,-2 2,-4 2,-7 0,-3 -1,-6 -2,-8 -2,-2 -4,-4 -7,-5 -3,-1 -7,-1 -12,-1l-20 0 0 29z"/>
   <path id="1" class="fil6" d="M769 1561l11 0 0 49c0,9 -1,15 -3,20 -2,5 -5,9 -10,12 -5,3 -12,5 -20,5 -8,0 -15,-1 -20,-4 -5,-3 -9,-7 -11,-12 -2,-5 -3,-12 -3,-21l0 -49 11 0 0 49c0,7 1,13 2,16 1,4 4,6 7,8 3,2 7,3 12,3 8,0 14,-2 18,-6 4,-4 5,-11 5,-22l0 -49z"/>
   <polygon id="2" class="fil6" points="833,1647 833,1561 845,1561 845,1647 "/>
   <polygon id="3" class="fil6" points="897,1647 897,1561 908,1561 908,1637 950,1637 950,1647 "/>
   <path id="4" class="fil6" d="M996 1647l0 -85 29 0c7,0 12,0 15,1 5,1 9,3 13,6 5,4 8,9 10,15 2,6 3,13 3,20 0,6 -1,12 -2,17 -2,5 -3,9 -6,12 -2,3 -5,6 -8,8 -3,2 -6,3 -10,4 -4,1 -9,1 -14,1l-31 0zm11 -10l18 0c6,0 10,-1 13,-2 3,-1 6,-3 8,-4 3,-3 5,-6 6,-11 1,-5 2,-10 2,-16 0,-9 -1,-16 -4,-21 -3,-5 -6,-8 -11,-10 -3,-1 -8,-2 -15,-2l-18 0 0 65z"/>
   <polygon id="5" class="fil6" points="1117,1647 1117,1561 1128,1561 1128,1647 "/>
   <polygon id="6" class="fil6" points="1181,1647 1181,1561 1192,1561 1237,1628 1237,1561 1248,1561 1248,1647 1236,1647 1191,1580 1191,1647 "/>
   <path id="7" class="fil6" d="M1339 1613l0 -10 36 0 0 32c-6,4 -11,8 -17,10 -6,2 -12,3 -18,3 -8,0 -16,-2 -23,-5 -7,-4 -12,-9 -16,-16 -3,-7 -5,-14 -5,-23 0,-8 2,-16 5,-23 3,-7 8,-13 15,-16 7,-3 14,-5 23,-5 6,0 12,1 17,3 5,2 9,5 12,8 3,4 5,8 6,14l-10 3c-1,-4 -3,-8 -5,-10 -2,-2 -5,-4 -8,-6 -4,-1 -7,-2 -12,-2 -5,0 -10,1 -13,2 -4,2 -7,4 -9,6 -2,3 -4,5 -5,8 -2,5 -3,11 -3,17 0,8 1,14 4,19 3,5 6,9 11,11 5,2 10,4 16,4 5,0 10,-1 14,-3 5,-2 8,-4 11,-6l0 -16 -25 0z"/>
   <polygon id="8" class="fil6" points="1458,1647 1458,1561 1516,1561 1516,1571 1470,1571 1470,1598 1510,1598 1510,1608 1470,1608 1470,1647 "/>
   <path id="9" class="fil6" d="M1619 1561l11 0 0 49c0,9 -1,15 -3,20 -2,5 -5,9 -10,12 -5,3 -12,5 -20,5 -8,0 -15,-1 -20,-4 -5,-3 -9,-7 -11,-12 -2,-5 -3,-12 -3,-21l0 -49 11 0 0 49c0,7 1,13 2,16 1,4 4,6 7,8 3,2 7,3 12,3 8,0 14,-2 18,-6 4,-4 5,-11 5,-22l0 -49z"/>
   <polygon id="10" class="fil6" points="1704,1647 1704,1571 1676,1571 1676,1561 1743,1561 1743,1571 1715,1571 1715,1647 "/>
   <path id="11" class="fil6" d="M1843 1561l11 0 0 49c0,9 -1,15 -3,20 -2,5 -5,9 -10,12 -5,3 -12,5 -20,5 -8,0 -15,-1 -20,-4 -5,-3 -9,-7 -11,-12 -2,-5 -3,-12 -3,-21l0 -49 11 0 0 49c0,7 1,13 2,16 1,4 4,6 7,8 3,2 7,3 12,3 8,0 14,-2 18,-6 4,-4 5,-11 5,-22l0 -49z"/>
   <path id="12" class="fil6" d="M1907 1647l0 -85 38 0c8,0 13,1 17,2 4,2 7,4 9,8 2,4 4,8 4,13 0,6 -2,11 -6,15 -4,4 -10,7 -18,8 3,1 5,3 7,4 3,3 6,7 9,11l15 23 -14 0 -11 -18c-3,-5 -6,-9 -8,-12 -2,-3 -4,-5 -6,-6 -2,-1 -3,-2 -5,-2 -1,0 -3,0 -6,0l-13 0 0 38 -11 0zm11 -48l24 0c5,0 9,-1 12,-2 3,-1 5,-3 7,-5 2,-2 2,-5 2,-8 0,-4 -1,-7 -4,-10 -3,-3 -8,-4 -14,-4l-27 0 0 28z"/>
   <polygon id="13" class="fil6" points="2025,1647 2025,1561 2087,1561 2087,1571 2037,1571 2037,1597 2084,1597 2084,1608 2037,1608 2037,1637 2089,1637 2089,1647 "/>
  </g>
 </g>
</svg>
